DataType=double
version=3
OpenSimVersion=4.5-2024-01-10-34fd6af
endheader
time	pelvis_tilt	pelvis_list	pelvis_rotation	pelvis_tx	pelvis_ty	pelvis_tz	hip_flexion_r	hip_adduction_r	hip_rotation_r	knee_angle_r	knee_adduction_r	knee_angle_r_beta	ankle_angle_r	subtalar_angle_r	mtp_angle_r	hip_flexion_l	hip_adduction_l	hip_rotation_l	knee_angle_l	knee_adduction_l	knee_angle_l_beta	ankle_angle_l	subtalar_angle_l	mtp_angle_l	lumbar_extension	lumbar_bending	lumbar_rotation	arm_flex_r	arm_add_r	arm_rot_r	elbow_flex_r	pro_sup_r	wrist_flex_r	wrist_dev_r	arm_flex_l	arm_add_l	arm_rot_l	elbow_flex_l	pro_sup_l	wrist_flex_l	wrist_dev_l
39.14	-0.1121398137323879	0.02336985131408907	0.09416970908495591	1.08409728515346	0.9491810813083249	0.4281262793585116	0.435123444569593	6.092016213437454	0.03387769496261435	1.23984932406299	0.03879643	1.23984932406299	0.1000811201280988	-0.3746823525839253	0.0280918451503971	6.607161320562686	6.301333758926126	-6.387920406669153	0.3500250228099745	0.09396746	0.3500250228099745	0.1542783439814377	-0.178576919830376	-0.0478295861848198	-0.07431788596806961	-0.02447595315343053	-0.03310560413157786	0.1439886564211709	-0.2199295616331553	-0.2651640890053699	1.702317110591686	1.57079633	0	0	-0.07336223351023478	-0.2256438712192	0.09982356642838644	0.6201091632650872	1.57079633	0	0
39.15	-0.1102407139376202	0.02525500739271258	0.09298426094036116	1.083076156782443	0.9499175452815618	0.4271605389289415	0.4612058696397647	6.087563051894895	0.03860662896265403	1.258566518499594	0.03879643	1.258566518499594	0.1014098618238969	-0.3708264330039028	0.02839266698762977	6.592236400518929	6.303753072591114	-6.388232304402731	0.3421109293925442	0.09396746	0.3421109293925442	0.1588233536785476	-0.1751388079620353	-0.04827224479856614	-0.07832790207531456	-0.02554207569027046	-0.03671159303780822	0.1178447436479761	-0.2136450138237125	-0.2647870415044571	1.651346778775287	1.57079633	0	0	-0.04129491778381747	-0.2328987195707315	0.09818106021798402	0.6313161499780182	1.57079633	0	0
39.16	-0.1084049106288323	0.02704145919776632	0.09156096116311052	1.082106237390908	0.9506371139996239	0.4262579067533154	0.4863833685254843	6.083363249590412	0.04345146815121349	1.271203551589413	0.03879643	1.271203551589413	0.1029787471692245	-0.3666405089256708	0.0269108875031883	6.577083187117005	6.306025243747342	-6.388630080284051	0.3337049644094682	0.09396746	0.3337049644094682	0.1633176029942049	-0.1717081628094144	-0.04830988746892276	-0.08204454332109219	-0.02636868379149002	-0.03973898496029067	0.09362846392218548	-0.2078235365718454	-0.2641130275019405	1.594781413522983	1.57079633	0	0	-0.008856608581055914	-0.2401927333554043	0.09732837632686464	0.6427629366579453	1.57079633	0	0
39.17	-0.1066260423600171	0.02877798537813771	0.0899101445223852	1.08119028192055	0.9513297739674389	0.4254199913847217	0.5105125454347887	6.079373130479644	0.04843628778347269	1.277706770443095	0.03879643	1.277706770443095	0.1044564248262671	-0.3624198918954031	0.02440314204746573	6.56164181429736	6.308201927820444	-6.389147538629378	0.3247559079170634	0.09396746	0.3247559079170634	0.1677406601046606	-0.1683025129959304	-0.04795386598832654	-0.08552615086787024	-0.02700091350962674	-0.04224280383720024	0.07151882058894636	-0.2024870822438319	-0.2631884812008787	1.532857168063384	1.57079633	0	0	0.02362376265804234	-0.2475166002979915	0.0969572463008179	0.6549721034641651	1.57079633	0	0
39.18	-0.1048899473110653	0.03051035199188731	0.08805876144032967	1.080324571561383	0.9519829295596552	0.4246472808697808	0.5334450272755461	6.075551762461497	0.05361559697996549	1.278042565127806	0.03879643	1.278042565127806	0.1055597633293409	-0.358468716140676	0.02157998738514878	6.545881624141964	6.31033718640182	-6.389771133650983	0.3152548447489238	0.09396746	0.3152548447489238	0.1720701424126861	-0.1649631124051379	-0.0472393994013116	-0.0888621237838543	-0.02747535444404468	-0.04429696449432766	0.05161222391217434	-0.197644606179464	-0.2620930470265682	1.465984493250657	1.57079633	0	0	0.05582573462831933	-0.2548649955351158	0.0967436053656581	0.6685008078489701	1.57079633	0	0
39.19	-0.1031836963814725	0.03228282723614644	0.0860477194625858	1.079499650652171	0.9525817431435408	0.4239385451069901	0.5550383881309128	6.071855540732523	0.05906363287767413	1.272190500077612	0.03879643	1.272190500077612	0.106065722634667	-0.355069441544283	0.01904107606577161	6.529811516802452	6.312488931107137	-6.390449235479053	0.3052372625265134	0.09396746	0.3052372625265134	0.1762877306808509	-0.1617466806974011	-0.04622371379352739	-0.09215663806592153	-0.02782307509758966	-0.04598499325955456	0.03390790562364264	-0.1932958628593519	-0.2609358554076146	1.394757375235327	1.57079633	0	0	0.08745582950376242	-0.2622330535353802	0.09636794964993058	0.6838951013267783	1.57079633	0	0
39.2	-0.1015049703528456	0.03414017208961981	0.0839272576031838	1.078701616906281	0.9531095962550697	0.4232906292307407	0.5751690790645482	6.068233304575272	0.06486220396938344	1.260145294400787	0.03879643	1.260145294400787	0.1058189887187806	-0.3524539437444788	0.01722922031387254	6.51348655182342	6.314720101072371	-6.391105882875075	0.2947801380222761	0.09396746	0.2947801380222761	0.1803831223641786	-0.1587158429466965	-0.0449819717298777	-0.09551010354243357	-0.02807447545274346	-0.04739025977068714	0.01830079274596078	-0.189433862714116	-0.259846949700567	1.319949266105359	1.57079633	0	0	0.118262548536508	-0.2696128989024778	0.09553361089031388	0.7016442813452743	1.57079633	0	0
39.21	-0.09986979272651657	0.03612919347565573	0.08175115038403023	1.077913871473721	0.9535487233137734	0.4226986883784744	0.5937444465976799	6.064623486176999	0.07108752346552852	1.241927725598528	0.03879643	1.241927725598528	0.1047352346650886	-0.3507793104141154	0.01640610980760998	6.49700950118241	6.317098639648481	-6.391656643873366	0.2839950232362707	0.09396746	0.2839950232362707	0.1843559819440637	-0.1559294020507508	-0.0436013763459565	-0.09900140318018137	-0.02826456567532099	-0.04858702506958598	0.004583256244893696	-0.1860456652683475	-0.2589644552994239	1.242495301490225	1.57079633	0	0	0.1480465352392007	-0.276990819262902	0.09398270795456934	0.7221397339933312	1.57079633	0	0
